<?xml version="1.0" encoding="utf-8"?>
<!-- Generator: Adobe Illustrator 24.3.0, SVG Export Plug-In . SVG Version: 6.00 Build 0)  -->
<svg version="1.1" xmlns="http://www.w3.org/2000/svg" xmlns:xlink="http://www.w3.org/1999/xlink" x="0px" y="0px"
	 viewBox="0 0 720 720" style="enable-background:new 0 0 720 720;" xml:space="preserve">
<g id="Layer_1">
	<g transform="translate(0.000000,998.000000) scale(0.100000,-0.100000)">
		<path d="M6445,7993.7c-4,61-8,146-10,190c-5,127-13,177-51,333c-50,208-77,254-245,427c-184,189-203,228-217,445
			c-10,138-16,150-82,150c-43,0-88-30-170-114c-30-31-57-56-61-56s-13,32-19,71c-9,55-10,96,0,178c24,223,24,213-5,244
			c-37,39-80,37-132-8c-106-91-200-259-234-420c-12-55-23-101-24-103c-1-1-44,29-96,68c-126,94-220,140-288,140c-63,0-86-11-106-51
			c-25-48-12-93,45-160l51-57l-58-11c-104-20-243-70-301-108c-131-87-400-313-458-385c-207-259-472-709-612-1038
			c-55-129-285-756-313-852l-22-78h-69c-84,0-228,28-382,75c-119,36-174,59-481,200c-571,261-900,358-1215,358
			c-271-1-447-62-513-179c-6.3-11.3-12.1-22.1-17.3-32.7c-19.5-25.4-33.4-55.4-45.2-86.8c-16.6-43.8-30-88.9-28-134.5
			c-3.4-9.5-4.2-20.1-2.2-30c-2.1-21.4-2.6-42.9-1.1-64.2c-1-15.2-1.1-30.5,0.9-46.1c4.7-36.4,15.5-72.5,23.8-108.2
			c1.5-6.5,4-12,7.1-16.7l0-1.8l42-84c158-314,590-586,1218-768c160-46,462-97,865-146c74-9,136-18,137-19c1-1-26-42-61-91
			c-64-90-154-245-186-321c-42-98-99-369-100-472c0-24,9-94,20-155c59-335,205-522,482-617c116-40,185-49,329-44
			c212,7,327,32,554,121c153,60,409,207,577,331c51,38,125,89,163,115c39,25,79,54,90,64c11,10,72,55,135,100
			c338,242,816,609,1012,779c184,160,324,372,348,529c12,76,5,257-12,288c-25,48-13,99,55,235c36,73,65,133,65,135c-1,1,15,31,35,67
			c114,205,265,569,308,745C6435,7703.7,6453,7862.7,6445,7993.7z M5798,6129.7c-9-165-68-298-189-420c-112-113-1264-991-1541-1174
			c-297-197-522-300-769-353c-116-25-349-26-437-2c-246,68-413,250-467,510c-65,308,66,701,324,971l74,77h119l-59-67
			c-216-245-343-551-343-822c1-414,307-580,805-436c216,63,431,178,669,358c191,145,411,365,821,823c183,204,362,397,399,429
			c71,63,174,135,193,135c6,0,36-27,65-60c29-33,56-60,59-60c4,0,21,12,38,26c39,32,40,65,4,113c-76,99-192,164-387,216
			c-81,22-92,23-113,10c-31-21-55-59-48-77c3-8,48-32,100-53c52-21,95-41,95-45c0-13-108-90-183-130c-222-120-590-201-1092-242
			c-210-17-968-17-1170,0c-1037,86-1710,293-2073,636c-184,174-272,336-272,499c0,89,15,137,58,187c39,46,69,64,144,85
			c68,19,365,14,488-9c220-41,385-99,790-278c472-209,665-274,921-312c134-20,205-20,309,0c114,21,177,47,421,168
			c319,159,540,224,671,197c142-30,201-114,243-344c26-142,39-183,60-190c6-3,59,8,116,24c238,67,339,83,534,83c167,0,186-2,268-27
			C5708,6494.7,5810,6366.7,5798,6129.7z M6269,7583.7c-44-218-128-427-326-813l-135-263l-52,49c-62,59-146,103-253,134
			c-69,20-100,23-263,22c-202,0-294-12-512-66c-70-17-130-29-133-26c-3,2-16,62-30,132c-48,241-106,331-239,371
			c-190,57-391,10-781-183c-208-103-340-162-364-162c-11,0,35,178,77,300c27,76,185,484,227,585c105,248,289,582,466,845
			c295,438,583,625,931,607c97-5,110-4,133,14c29,23,31,45,10,95l-15,35l40-31c21-17,68-62,103-100c36-39,71-70,79-70
			c16,0,50,33,66,66c17,33,30,99,42,216c11,115,33,190,77,268c15,28,29,50,30,50c1,0,0-53-4-117c-6-133,9-227,50-317
			c26-57,91-136,111-136c23,0,56,46,71,97c16,54,71,144,93,151c9,3,12-15,12-66c0-91,29-182,81-258c23-32,92-111,153-174
			c130-133,184-217,227-351C6318,8248.7,6329,7883.7,6269,7583.7z"/>
		<path d="M4304,8734.7c-53-24-161-126-239-226c-117-150-225-346-363-660c-165-378-214-701-113-755c113-60,303,112,459,417l51,99
			l-55,153c-30,84-54,159-54,166c0,9,33,19,98,30c53,9,119,22,146,28l48,12l80,190c153,368,174,443,140,507
			C4471,8752.7,4383,8770.7,4304,8734.7z"/>
		<path d="M5262,8594.7c-115-75-206-188-296-369c-113-226-260-618-310-827c-82-346-31-567,133-582c62-6,100,21,173,122
			c60,83,160,261,199,354l22,53l-76,154c-42,85-77,156-77,158c0,3,64,26,143,51c78,26,147,52,153,59c11,11,87,285,120,431
			c21,98,29,270,15,323c-16,57-57,101-101,108C5331,8634.7,5314,8628.7,5262,8594.7z"/>
		<path d="M3785,6823.7c-26-10-89-79-110-119c-12-24-13-36-5-51c18-34,47-23,115,44c69,69,83,106,46,126
			C3809,6834.7,3812,6834.7,3785,6823.7z"/>
		<path d="M4004,6778.7c-12-7-31-41-43-74s-26-63-31-66c-18-11-11-54,10-65c26-14,75,10,94,48c28,56,48,143,35,158
			C4054,6797.7,4030,6797.7,4004,6778.7z"/>
		<path d="M485,3867.7c-11-2-57-11-102-20c-46-9-87-22-93-29s-12-180-17-461c-5-398-4-450,9-462c12-9,56-12,169-10l154,3l3,146
			l3,147l81,12c253,37,379,162,366,364c-10,152-106,256-275,300C727,3872.7,541,3878.7,485,3867.7z M730,3852.7
			c219-35,344-187,309-376c-27-148-148-240-350-266l-89-11v-148v-148H443H287l6,388c4,213,7,417,7,453v67l68,17
			C487,3858.7,631,3868.7,730,3852.7z"/>
		<path d="M633,3596.7c-22-4-23-9-23-99v-94h26c30,0,60,14,92,43c43,40,20,147-32,147c-8,0-20,2-28,4
			C661,3599.7,645,3598.7,633,3596.7z M717,3559.7c15-14,19-44,10-78c-8-29-51-58-88-58c-20,0-21,3-14,73c4,39,12,75,19,79
			C657,3584.7,701,3574.7,717,3559.7z"/>
		<path d="M2025,3867.7c-118-23-177-40-188-52c-8-10-12-61-13-161c-2-460-6-575-15-551c-6,14-55,180-110,370s-102,353-105,363
			c-6,18-16,19-152,13c-81-4-168-9-194-12l-47-6l-20-61c-45-136-241-797-241-811c0-20,13-23,170-36c195-17,191-19,210,60l15,65l57,3
			l57,3l11-43c23-88,25-93,54-96c15-2,83,4,150,12c159,21,156,21,156-9c0-33,17-36,190-33l145,3l3,146l3,147l79,11
			c210,31,332,119,370,268c9,34,9,32,4-17c-6-60-6-542,1-548c7-7,563,11,576,19s34,270,24,297c-3,9-40,12-135,12h-130v29v29l91,4
			c58,3,93,9,98,17c9,15,22,201,15,213c-3,4-45,8-95,8c-88,0-89,0-89,25s1,25,83,26c45,0,108,4,140,8l57,7l-1-55c0-31-4-180-8-331
			c-5-151-6-281-4-287c7-18,298-18,309-1c4,7,10,66,13,132c6,119,6,121,30,121c21,0,28-12,68-125c24-69,48-129,53-134
			c8-8,249,26,285,40c8,3,10-5,7-24c-5-40,17-56,70-48c105,14,274,25,398,26c74,0,141,4,148,9c16,10,36,291,22,305c-5,5-66,8-135,7
			l-125-2v30v31l73,1c125,2,121-2,131,123c7,88,6,110-5,118c-8,5-50,6-96,3c-83-6-83-6-83,18s1,24,105,26c103,1,105,1,105-21
			c0-47,10-51,119-43l101,7v-37c0-32-2-36-15-25s-15-18-13-258c2-190,6-275,15-283c8-8,48-8,164,0c85,7,156,14,159,17
			c4,5,48,513,50,575c0,26,1,27,95,34c73,5,97,11,104,23c6,11,9-105,8-318l-2-335l144-3c87-1,148,1,154,7s13,66,16,133
			c6,121,6,123,30,123c21,0,28-13,68-125c24-69,48-129,53-134c13-13,311,44,317,61c3,7-27,71-66,143l-72,130l37,32
			c21,18,50,51,66,72l28,39v-50c0-73,33-170,80-236c173-241,540-233,701,16c55,85,74,152,73,267c-1,73-6,108-23,151
			c-47,122-123,199-238,242c-45,16-81,21-163,22c-97,0-110-2-170-31c-91-43-162-111-203-192l-33-67l-11,65c-5,36-18,82-27,102
			c-41,87-130,155-240,184c-137,37-506-5-506-57c0-11-4-19-10-19c-5,0-10,15-10,34v33l-656,8c-473,5-659,4-667-4c-7-7-13-89-16-224
			c-5-183-6-198-11-112c-7,121-30,176-105,251c-72,73-137,96-287,102c-128,5-247-9-332-38l-55-19l-3,22c-3,22-3,22-307,25
			c-186,1-308-1-314-7s-13-72-17-148s-8-127-8-112c-3,42-50,125-96,167c-89,82-187,113-357,111C2096,3871.7,2036,3869.7,2025,3867.7
			z M2280,3852.7c86-13,201-71,245-122c45-53,70-126,69-207c-3-170-134-285-356-313l-88-11v-148v-148h-156h-157l6,388
			c4,213,7,417,7,453v67l68,17C2037,3858.7,2181,3868.7,2280,3852.7z M3715,3853.7c127-19,229-88,278-189c18-38,22-63,22-141
			c-1-83-4-102-28-146c-14-29-47-70-73-92l-47-40l75-134c62-110,73-134,59-139c-9-3-74-16-144-29c-98-18-130-21-136-12
			c-4,7-27,68-51,137l-45,125h-36h-36l-6-67c-4-38-7-98-7-135v-68h-141h-142l8,422c4,233,11,432,15,444
			C3299,3838.7,3554,3876.7,3715,3853.7z M5942,3834.7c158-55,238-175,226-335c-7-84-39-152-99-208l-50-47l74-134l74-134l-76-16
			c-168-36-212-41-220-29c-4,7-27,68-52,137l-44,125h-36h-36l-7-61c-3-34-6-95-6-135v-74h-141h-141l7,423c4,232,11,431,15,443
			C5454,3851.7,5804,3882.7,5942,3834.7z M1655,3563.7c42-146,97-332,121-414c24-83,44-157,44-166c0-15-22-20-137-34
			c-76-9-147-19-159-21c-18-4-22,5-39,70l-18,75h-72h-72l-18-76c-16-68-20-75-39-70c-11,2-84,10-161,17s-141,13-143,15
			c-3,2,31,118,138,479c22,72,56,187,76,256l37,127l176,8c97,5,179,7,183,4C1575,3830.7,1613,3709.7,1655,3563.7z M3244,3801.7
			c-2-24-6-77-10-119l-5-77l-37-6c-20-3-69-6-108-6s-86-3-103-6c-27-6-31-10-31-40c0-34,0-34,48-35c26,0,68,0,95,1l47,1l-1-48
			c-1-26-4-73-7-103l-7-55l-95-5l-95-5l-3-45l-3-45l137,1l136,1l-7-136c-4-75-10-139-14-143c-3-3-129-10-280-14l-274-7l7,374
			c3,206,9,416,12,467l6,92h298h298L3244,3801.7z M5180,3833.7h196l-4-132c-3-84-9-136-16-140c-6-4-48-8-93-8h-82l-5-42
			c-3-24-15-160-26-303c-12-142-22-261-25-263c-5-6-258-19-267-15c-5,2-8,139-8,304v301l-92-3l-93-3l-3,36l-3,37l-107-5
			c-169-8-172-9-172-49c0-39-8-37,143-37h47v-36c0-21-3-67-6-104l-7-67l-96-3l-96-3l-3-42c-2-30,1-43,10-44c7-1,68-1,136,0l123,2
			l-7-138c-3-76-9-141-13-145c-3-3-129-9-280-13l-273-8l7,409c4,225,9,420,10,434s3,40,4,59l1,34l452-6
			C4780,3836.7,5072,3833.7,5180,3833.7z M6728,3769.7c112-30,210-117,252-223c34-86,39-211,11-301c-24-80-84-174-136-215
			c-122-97-298-114-440-44c-205,100-284,363-175,577c48,94,162,188,254,211C6546,3786.7,6672,3784.7,6728,3769.7z M4013,3180.7
			l-8-138l-56,98l-56,98l52,52c29,28,57,62,62,75c7,21,8,20,11-12C4019,3334.7,4017,3256.7,4013,3180.7z"/>
		<path d="M2160,3508.7c0-47,0-88-1-92c0-11,29-16,56-9c13,3,37,18,54,32c26,22,31,33,31,70c0,61-24,84-90,84h-50V3508.7z
			 M2267,3559.7c15-14,19-44,10-78c-8-29-51-58-88-58c-20,0-21,3-14,73c4,39,12,75,19,79C2207,3584.7,2251,3574.7,2267,3559.7z"/>
		<path d="M3566,3596.7c-3-21-6-75-6-120v-83h27c15,0,46,9,69,20c79,39,95,131,34,192c-23,22-37,28-73,28
			C3573,3633.7,3572,3632.7,3566,3596.7z M3673,3593.7c31-24,43-74,28-113c-13-33-66-67-105-67c-27,0-28,2-22,31c3,17,6,62,6,100v69
			h34C3632,3613.7,3659,3604.7,3673,3593.7z"/>
		<path d="M5716,3602.7c-3-17-6-72-6-122v-90l42,7c95,15,142,78,119,157c-15,51-53,79-106,79C5725,3633.7,5722,3631.7,5716,3602.7z
			 M5817,3598.7c13-9,28-33,34-54c14-47-6-93-51-116c-40-21-84-20-76,1c3,9,6,54,6,100v84h33C5781,3613.7,5805,3606.7,5817,3598.7z"
			/>
		<path d="M1390,3470.7c0-6-26-134-35-174c-5-21-2-23,40-23c25,0,45,1,45,3c0,12-42,192-46,196C1392,3474.7,1390,3474.7,1390,3470.7
			z M1409,3331.7c9-36,8-38-13-38c-22,0-23,2-13,46c6,26,12,43,13,38C1398,3372.7,1403,3351.7,1409,3331.7z"/>
		<path d="M6560,3496.7c-56-22-97-99-85-161c19-105,103-151,183-102c77,47,83,196,9,245C6639,3496.7,6583,3506.7,6560,3496.7z
			 M6640,3468.7c76-39,80-169,8-219c-69-49-158,13-158,109c0,47,23,91,58,109C6583,3486.7,6604,3487.7,6640,3468.7z"/>
	</g>
</g>
<g id="Layer_2">
</g>
</svg>
